<svg xmlns="http://www.w3.org/2000/svg" width="25" height="22" viewBox="0 0 25 22">
    <g fill="none" fill-rule="evenodd">
        <circle cx="10.174" cy="12.209" r="8.721" fill="#FFF"/>
        <path fill="#637883" fill-rule="nonzero" d="M10.518 11.656l-2.323-3.33c-.77-1.104-4.78 1.694-4.01 2.797l4.323 6.198c.769 1.103 2.3 1.376 3.404.607.313-.22.557-.5.732-.816l.002.001.01-.021c.055-.103.104-.209.145-.317.89-1.915 5.6-11.588 12.181-16.558 0 0-8.286.21-14.464 11.44z"/>
        <path fill="#E2E7EC" fill-rule="nonzero" d="M18.078 9.295c.24.773.37 1.594.37 2.445 0 4.538-3.691 8.23-8.23 8.23-4.538 0-8.23-3.692-8.23-8.23 0-4.539 3.692-8.23 8.23-8.23 1.605 0 3.102.462 4.37 1.26.503-.432.993-.825 1.44-1.17-1.64-1.174-3.644-1.867-5.81-1.867C4.702 1.733.213 6.222.213 11.74c0 5.517 4.489 10.006 10.007 10.006 5.517 0 10.006-4.489 10.006-10.006 0-1.565-.362-3.046-1.004-4.367-.342.525-.73 1.165-1.143 1.922z"/>
    </g>
</svg>